<svg width="36" height="24" viewBox="0 0 36 24" fill="none" xmlns="http://www.w3.org/2000/svg">
<path d="M0 0V21H1.5C13.365 21 16.5 22.9635 16.5 24H19.5C19.5 22.9635 22.635 21 34.5 21H36V0H34.5C25.8046 0 20.4153 0.962373 18 2.97363C15.5847 0.962373 10.1954 0 1.5 0H0ZM3 3.01172C13.632 3.16922 16.5 5.007 16.5 6H19.5C19.5 5.007 22.368 3.16922 33 3.01172V18.0117C25.1904 18.1169 20.2777 19.0744 18 20.9619C15.7223 19.0744 10.8096 18.1169 3 18.0117V3.01172ZM16.5 9V12H19.5V9H16.5ZM16.5 15V18H19.5V15H16.5Z" fill="white"/>
</svg>
