<svg width="25" height="25" viewBox="0 0 25 25" fill="none" xmlns="http://www.w3.org/2000/svg">
<g filter="url(#filter0_d_623_515)">
<path d="M12.5 0C9.4994 0 6.86884 1.55878 5.35635 3.90635L4 2.55V6.8H8.25L6.59648 5.14648C7.76549 3.09073 9.96644 1.7 12.5 1.7C16.2553 1.7 19.3 4.7447 19.3 8.5C19.3 12.2553 16.2553 15.3 12.5 15.3C11.9934 15.3 11.4896 15.2445 11.0009 15.134L10.6273 16.7925C11.2385 16.9302 11.8685 17 12.5 17C17.1945 17 21 13.1945 21 8.5C21 3.80545 17.1945 0 12.5 0ZM12.256 3.4V4.31641C11.9678 4.35296 10.3551 4.65594 10.3551 6.60244C10.3551 9.44229 13.2952 8.60252 13.2952 10.4972C13.2952 11.4458 12.6814 11.4684 12.5564 11.4684C12.4425 11.4684 11.6948 11.5289 11.6948 10.0771H10.0878C10.0878 12.5353 11.8712 12.7301 12.1364 12.7666V13.6H12.9881V12.7666C13.2754 12.7309 14.9006 12.4643 14.9006 10.4855C14.9006 7.76045 11.9613 8.28184 11.9604 6.61074C11.9604 5.65279 12.4874 5.62295 12.6013 5.62295C12.8095 5.62295 13.3052 5.80561 13.3052 6.97266H14.9122C14.9122 4.73971 13.3854 4.3915 13.1126 4.33965V3.4H12.256ZM4 8.5L4.00166 8.63447C4.01101 9.26517 4.09035 9.89355 4.2374 10.5021L5.89092 10.1054C5.77277 9.61832 5.70931 9.11366 5.70166 8.60791L5.7 8.5H4ZM6.40391 11.5198L4.88154 12.2769C5.16204 12.8387 5.50474 13.3727 5.90254 13.8606L7.2207 12.7882C6.9028 12.3972 6.62831 11.9703 6.40391 11.5198ZM8.29648 13.8457L7.24395 15.1805C7.7395 15.5706 8.27739 15.9063 8.84434 16.1766L9.57647 14.6426C9.12257 14.4258 8.69258 14.1577 8.29648 13.8457Z" fill="white"/>
<path d="M5.00279 4.2599L5.44101 4.69812L5.77666 4.17715C7.20151 1.96561 9.67733 0.5 12.5 0.5C16.9184 0.5 20.5 4.08159 20.5 8.5C20.5 12.9184 16.9184 16.5 12.5 16.5C12.0732 16.5 11.6473 16.4661 11.2285 16.3992L11.3826 15.7149C11.7511 15.7716 12.125 15.8 12.5 15.8C16.5314 15.8 19.8 12.5314 19.8 8.5C19.8 4.46856 16.5314 1.2 12.5 1.2C9.77806 1.2 7.41541 2.69488 6.16184 4.89933L5.97347 5.23058L6.24293 5.50004L7.04289 6.3H4.5V3.75711L5.00279 4.2599ZM12.3189 4.81243L12.6807 4.76653L13.0193 4.83086C13.1183 4.84967 13.4638 4.92633 13.781 5.21058C14.0255 5.42973 14.2908 5.80572 14.3806 6.47266H13.7738C13.7206 6.07954 13.6008 5.77654 13.425 5.55195C13.1729 5.22982 12.8466 5.12295 12.6013 5.12295C12.4981 5.12295 12.1904 5.136 11.9097 5.38066C11.6188 5.63417 11.4604 6.04299 11.4604 6.61074V6.611C11.4608 7.21241 11.7408 7.62398 12.101 7.92278C12.3504 8.12969 12.673 8.30632 12.9549 8.46062C13.0351 8.50457 13.1121 8.54671 13.1831 8.58722C13.5368 8.78897 13.8316 8.99115 14.0441 9.26914C14.2467 9.53414 14.4006 9.90318 14.4006 10.4855C14.4006 11.3117 14.0736 11.7231 13.7599 11.949C13.4185 12.1948 13.0392 12.2564 12.9264 12.2704L12.5436 12.318L12.2047 12.2713C12.2008 12.2707 12.1966 12.2702 12.1921 12.2696C12.0529 12.2506 11.6694 12.1985 11.3133 11.9305C11.0303 11.7175 10.7156 11.3299 10.6182 10.5771H11.2257C11.2958 11.1027 11.4829 11.4699 11.7643 11.7025C11.9412 11.8487 12.1264 11.916 12.2769 11.9457C12.3514 11.9604 12.4168 11.9659 12.4679 11.9678C12.5108 11.9694 12.5659 11.9684 12.5564 11.9684C12.6492 11.9684 12.968 11.9624 13.2687 11.7414C13.5973 11.5 13.7952 11.0874 13.7952 10.4972C13.7952 9.86125 13.5345 9.42334 13.1579 9.10618C12.8878 8.87883 12.5395 8.70419 12.2459 8.55704C12.1792 8.52355 12.1152 8.49149 12.0557 8.46056C11.7001 8.27581 11.4137 8.09549 11.2074 7.83339C11.0117 7.58475 10.8551 7.21863 10.8551 6.60244C10.8551 5.79339 11.1784 5.37831 11.4941 5.14572C11.8358 4.89391 12.2149 4.82563 12.3189 4.81243ZM5.30398 9.73202L4.62155 9.89578C4.56962 9.60018 4.53427 9.30085 4.51581 9H5.21757C5.23412 9.2455 5.26294 9.49005 5.30398 9.73202ZM6.53073 12.705L5.98678 13.1475C5.83629 12.937 5.69593 12.7189 5.56631 12.4947L6.19431 12.1825C6.299 12.3612 6.41127 12.5356 6.53073 12.705ZM8.91736 14.8627L8.61525 15.4957C8.38937 15.3698 8.16924 15.2327 7.95594 15.0851L8.39017 14.5344C8.56119 14.6512 8.73711 14.7608 8.91736 14.8627Z" stroke="white"/>
</g>
<defs>
<filter id="filter0_d_623_515" x="0" y="0" width="25" height="25" filterUnits="userSpaceOnUse" color-interpolation-filters="sRGB">
<feFlood flood-opacity="0" result="BackgroundImageFix"/>
<feColorMatrix in="SourceAlpha" type="matrix" values="0 0 0 0 0 0 0 0 0 0 0 0 0 0 0 0 0 0 127 0" result="hardAlpha"/>
<feOffset dy="4"/>
<feGaussianBlur stdDeviation="2"/>
<feComposite in2="hardAlpha" operator="out"/>
<feColorMatrix type="matrix" values="0 0 0 0 0 0 0 0 0 0 0 0 0 0 0 0 0 0 0.25 0"/>
<feBlend mode="normal" in2="BackgroundImageFix" result="effect1_dropShadow_623_515"/>
<feBlend mode="normal" in="SourceGraphic" in2="effect1_dropShadow_623_515" result="shape"/>
</filter>
</defs>
</svg>
