<svg width="17" height="17" viewBox="0 0 17 17" fill="none" xmlns="http://www.w3.org/2000/svg">
<path d="M7.72727 0C3.4595 0 0 3.4595 0 7.72727C0 11.995 3.4595 15.4545 7.72727 15.4545C8.25659 15.4545 8.77355 15.4003 9.27273 15.2991V13.7069C8.77818 13.8344 8.262 13.9091 7.72727 13.9091C4.31336 13.9091 1.54545 11.1412 1.54545 7.72727C1.54545 4.31336 4.31336 1.54545 7.72727 1.54545C11.1412 1.54545 13.9091 4.31336 13.9091 7.72727C13.9091 8.262 13.8344 8.77818 13.7069 9.27273H15.2991C15.4003 8.77355 15.4545 8.25659 15.4545 7.72727C15.4545 3.4595 11.995 0 7.72727 0ZM7.50542 2.82076V3.92401C7.24346 3.95723 5.77734 4.23267 5.77734 6.00222C5.77734 8.5839 8.4502 7.82047 8.4502 9.54288C8.4502 10.4052 7.89218 10.4258 7.77859 10.4258C7.67504 10.4258 6.99529 10.4809 6.99529 9.16104H5.53436C5.53436 11.3958 7.15566 11.5728 7.39675 11.606V12.6338H8.17099V11.606C8.43217 11.5735 9.90962 11.3312 9.90962 9.53232C9.90962 7.05495 7.23755 7.52895 7.23677 6.00977C7.23677 5.1389 7.71579 5.11177 7.81934 5.11177C8.00865 5.11177 8.45925 5.27782 8.45925 6.33878H9.92019C9.92019 4.30882 8.53223 3.99227 8.28418 3.94513V2.82076H7.50542ZM13.1364 10.8182V13.1364H10.8182V14.6818H13.1364V17H14.6818V14.6818H17V13.1364H14.6818V10.8182H13.1364Z" fill="white"/>
</svg>
