<svg width="24" height="24" viewBox="0 0 24 24" fill="none" xmlns="http://www.w3.org/2000/svg">
<path d="M12 0C5.3832 0 0 5.3832 0 12C0 18.6168 5.3832 24 12 24C18.6168 24 24 18.6168 24 12C24 5.3832 18.6168 0 12 0ZM15.3816 16.4964C15.2364 16.908 15.0312 17.2656 14.766 17.5656C14.5008 17.8668 14.1816 18.108 13.8084 18.2904C13.6164 18.384 13.4136 18.4596 13.2 18.5184V20.4H10.8V18.5412C10.5684 18.4812 10.3404 18.4068 10.1184 18.3072C9.7236 18.1308 9.3732 17.8764 9.0672 17.5428C8.7612 17.2104 8.5164 16.7916 8.3328 16.284C8.1504 15.7776 8.0592 15.1056 8.0592 14.4H10.2672C10.2672 14.8176 10.314 15.2316 10.4088 15.5112C10.5024 15.7908 10.6284 16.014 10.7856 16.182C10.944 16.35 11.124 16.4676 11.3244 16.536C11.5248 16.6044 11.7312 16.638 11.94 16.638C12.1788 16.638 12.3888 16.5996 12.57 16.5228C12.75 16.446 12.9024 16.3404 13.0236 16.2048C13.1472 16.0692 13.2372 15.9084 13.2984 15.7236C13.3596 15.5376 13.3896 15.336 13.3896 15.1188C13.3896 14.8716 13.362 14.6544 13.3056 14.466C13.2492 14.2776 13.1568 14.1072 13.0308 13.9536C12.9036 13.8 12.7392 13.6584 12.5376 13.53C12.3372 13.4004 12.0912 13.2732 11.8008 13.1496C11.3028 12.9324 10.8492 12.7032 10.4412 12.4644C10.0332 12.2268 9.6852 11.952 9.3948 11.6388C9.1044 11.3256 8.8788 10.962 8.718 10.5432C8.5572 10.1256 8.478 9.6276 8.478 9.0504C8.478 8.55 8.55 8.094 8.6916 7.6812C8.8344 7.2696 9.0384 6.9108 9.3036 6.6048C9.5688 6.2976 9.8856 6.0504 10.254 5.8584C10.4268 5.7684 10.6092 5.6976 10.8 5.6388V3.6H13.2V5.6412C13.4508 5.7192 13.6908 5.8164 13.9104 5.9508C14.2668 6.168 14.5716 6.4512 14.82 6.798C15.0696 7.146 15.2628 7.5564 15.3972 8.0304C15.5304 8.4972 15.5964 9.0216 15.5988 9.6H13.3896C13.386 8.9076 13.2624 8.3844 13.014 8.0388C12.762 7.6884 12.4248 7.5132 12.0024 7.5132C11.772 7.5132 11.5752 7.5528 11.4108 7.632C11.2452 7.7112 11.1084 7.8204 11.0016 7.9584C10.8936 8.0964 10.8144 8.2608 10.7652 8.4492C10.7136 8.6376 10.6884 8.8416 10.6884 9.0588C10.6884 9.276 10.7136 9.4728 10.7652 9.6504C10.8156 9.8268 10.9032 9.9912 11.0292 10.1412C11.154 10.2912 11.3196 10.4328 11.5248 10.5648C11.7312 10.6968 11.9868 10.8336 12.294 10.9752C12.7872 11.2044 13.2372 11.4396 13.6416 11.682C14.0472 11.9232 14.394 12.2016 14.6844 12.516C14.9748 12.8304 15.2004 13.1976 15.36 13.6152C15.5196 14.034 15.6 14.5296 15.6 15.1008C15.6 15.6192 15.5268 16.0836 15.3816 16.4964Z" fill="#E9446C"/>
</svg>
