<svg width="19" height="16" viewBox="0 0 19 16" fill="none" xmlns="http://www.w3.org/2000/svg">
<path fill-rule="evenodd" clip-rule="evenodd" d="M0 4.88889L5.33333 0V4.44485H14.2222C15.3276 4.44485 16.6023 4.86212 17.5232 5.99544C18.441 7.12504 18.899 8.83191 18.6622 11.2C18.5528 12.2936 18.2029 13.1814 17.661 13.8823C17.1218 14.5797 16.4298 15.0443 15.7066 15.3531C14.2922 15.957 12.6655 16.0004 11.5555 16.0004V14.2226C12.6678 14.2226 13.9622 14.1648 15.0085 13.7181C15.5156 13.5016 15.9387 13.2035 16.2546 12.7949C16.5678 12.3898 16.8127 11.8282 16.8932 11.0231C17.1009 8.94669 16.67 7.76466 16.1434 7.11649C15.6198 6.47203 14.8945 6.22263 14.2222 6.22263H5.33333V10.2222L0 4.88889ZM9.77778 14.2224H8V16.0002H9.77778V14.2224ZM4.44439 14.2224H6.22217V16.0002H4.44439V14.2224ZM2.66668 14.2224H0.888902V16.0002H2.66668V14.2224Z" fill="black"/>
</svg>
