<svg width="17" height="17" viewBox="0 0 17 17" fill="none" xmlns="http://www.w3.org/2000/svg">
<path d="M16.7866 7.95945L9.10427 0.25108C8.94292 0.0891909 8.72828 0 8.5001 0C8.27178 0 8.05714 0.0891109 7.89587 0.25108L0.213501 7.95945C-0.043821 8.21758 -0.0137514 8.43951 0.0270079 8.54488C0.0678442 8.65016 0.189661 8.8335 0.546959 8.8335H1.41198V15.6846C1.41198 16.3976 2.0023 17 2.67075 17H6.56457V12.3563H10.3329V17H14.3292C14.9998 17 15.5624 16.3853 15.5624 15.6846V8.8335H16.453C16.8103 8.8335 16.9321 8.65016 16.973 8.54488C17.0137 8.43951 17.0439 8.21766 16.7866 7.95945Z" fill="white"/>
</svg>
