<svg width="98" height="20" viewBox="0 0 98 20" fill="none" xmlns="http://www.w3.org/2000/svg">
<path fill-rule="evenodd" clip-rule="evenodd" d="M46.9559 6.20822C47.4285 6.20822 47.8117 6.09035 47.8117 5.94495V4.66367C47.8117 4.51826 47.4285 4.40039 46.9559 4.40039C46.4833 4.40039 46.1002 4.51826 46.1002 4.66367V5.94495C46.1002 6.09035 46.4833 6.20822 46.9559 6.20822ZM62.9132 5.31147C62.9132 4.80884 63.2967 4.40138 63.7697 4.40138C64.2427 4.40138 64.6262 4.80884 64.6262 5.31147V9.55815C65.0513 9.05823 65.6706 8.59612 66.4904 8.31419C66.53 8.30056 67.4966 8.01315 68.4898 8.31419C70.4425 8.91625 70.8774 11.174 70.8774 11.174V17.7305C70.8774 18.2856 70.5919 18.6999 70.0208 18.6999C69.4497 18.6999 69.0389 18.2856 69.0389 17.7305V12.2276C69.0389 12.1308 69.0389 9.93503 67.0617 9.93503C66.4674 9.93503 65.2806 10.3947 64.6262 12.1556V17.7903C64.6262 18.293 64.2427 18.7004 63.7697 18.7004C63.2967 18.7004 62.9132 18.293 62.9132 17.7903V5.31147ZM86.4641 6.50718C86.9367 6.50718 87.3198 6.38931 87.3198 6.24391V4.96263C87.3198 4.81722 86.9367 4.69935 86.4641 4.69935C85.9914 4.69935 85.6083 4.81722 85.6083 4.96263V6.24391C85.6083 6.38931 85.9914 6.50718 86.4641 6.50718ZM85.6075 8.13802C85.6075 7.73592 85.991 7.40995 86.464 7.40995C86.9371 7.40995 87.3205 7.73592 87.3205 8.13802V18.1211C87.3205 18.5232 86.9371 18.8492 86.464 18.8492C85.991 18.8492 85.6075 18.5232 85.6075 18.1211V8.13802ZM90.5709 8.28978C90.0442 8.28978 89.6172 8.59065 89.6172 8.96178V18.1761C89.6172 18.5472 90.0442 18.8481 90.5709 18.8481C91.0976 18.8481 91.5246 18.5472 91.5246 18.1761V11.9406C92.1559 10.4232 93.1159 10.0835 93.7659 10.0835C95.7431 10.0835 95.7431 12.2794 95.7431 12.3761V17.879L95.7431 17.9173C95.7425 18.4598 95.742 18.9991 96.7184 18.9991C97.7179 18.9991 97.7179 18.4341 97.7179 17.879V11.0131C97.7179 11.0131 97.1467 9.06476 95.1941 8.46269C94.2009 8.16166 93.2343 8.44907 93.1947 8.46269C92.4214 8.7286 91.8834 9.24455 91.5246 9.81106V8.96178C91.5246 8.59065 91.0976 8.28978 90.5709 8.28978ZM77.975 18.6986C74.9397 18.6986 72.4791 16.1042 72.4791 12.9038C72.4791 9.70336 74.9397 7.1089 77.975 7.1089C81.0104 7.1089 83.471 9.70336 83.471 12.9038C83.471 12.9848 83.4694 13.0654 83.4663 13.1456V18.3195C83.4663 18.5285 83.0828 18.6979 82.6098 18.6979C82.1367 18.6979 81.7533 18.5285 81.7533 18.3195V17.1122C80.7684 18.0955 79.4385 18.6986 77.975 18.6986ZM77.9752 16.8926C80.0644 16.8926 81.7581 15.1068 81.7581 12.9039C81.7581 10.701 80.0644 8.9152 77.9752 8.9152C75.8859 8.9152 74.1922 10.701 74.1922 12.9039C74.1922 15.1068 75.8859 16.8926 77.9752 16.8926ZM50.3321 12.7553C50.3321 15.9557 52.7927 18.5501 55.8281 18.5501C58.1312 18.5501 60.1034 17.0564 60.9209 14.9377L60.9205 14.9377L60.9231 14.9321C60.9341 14.9033 60.945 14.8745 60.9556 14.8456C61.0341 14.5767 60.9059 14.3202 60.7776 14.1851C60.6348 14.0346 60.492 14.0346 60.2064 14.0346C59.9208 14.0346 59.6351 14.0346 59.4923 14.1851C59.4584 14.2208 59.4084 14.2905 59.35 14.3719L59.3499 14.3719C59.2994 14.4424 59.2424 14.5217 59.1841 14.5955C58.5534 15.8722 57.2867 16.744 55.827 16.744C53.7377 16.744 52.044 14.9582 52.044 12.7554C52.044 10.5525 53.7377 8.76667 55.827 8.76667C57.2882 8.76667 58.5559 9.64021 59.186 10.919L59.2016 10.9462L59.2016 10.9463L59.2017 10.9464L59.2017 10.9464C59.2563 11.0418 59.3063 11.1292 59.3495 11.1748C59.3832 11.2103 59.4169 11.2542 59.4525 11.3006C59.5677 11.4506 59.7026 11.6263 59.9208 11.6263H60.6348C60.7776 11.6263 61.0633 11.4758 61.0633 11.1748C61.0633 11.0995 61.0461 10.9844 61.0223 10.857C60.2769 8.58886 58.2328 6.9604 55.8281 6.9604C52.7927 6.9604 50.3321 9.55485 50.3321 12.7553ZM46.0992 7.83896C46.0992 7.43686 46.4827 7.11089 46.9557 7.11089C47.4288 7.11089 47.8122 7.43686 47.8122 7.83896V17.8221C47.8122 18.2242 47.4288 18.5501 46.9557 18.5501C46.4827 18.5501 46.0992 18.2242 46.0992 17.8221V7.83896ZM40.2157 17.801C40.2157 18.2979 39.828 18.7006 39.3497 18.7006C38.8715 18.7006 38.4837 18.2979 38.4837 17.801V12.0246C38.5906 8.91892 40.3585 7.26142 43.4706 7.26142C43.9488 7.26142 44.3366 7.6642 44.3366 8.16106C44.3366 8.65791 43.9488 9.0607 43.4706 9.0607C41.2719 9.0607 40.292 9.97428 40.2157 12.0413V17.801ZM25.7789 12.9058C25.7789 16.1062 28.2395 18.7006 31.2748 18.7006C34.3102 18.7006 36.7708 16.1062 36.7708 12.9058C36.7708 9.70534 34.3102 7.11089 31.2748 7.11089C28.2395 7.11089 25.7789 9.70534 25.7789 12.9058ZM31.2747 16.8945C33.364 16.8945 35.0576 15.1087 35.0576 12.9059C35.0576 10.703 33.364 8.91719 31.2747 8.91719C29.1855 8.91719 27.4918 10.703 27.4918 12.9059C27.4918 15.1087 29.1855 16.8945 31.2747 16.8945ZM20.2115 4.40145C19.7385 4.40145 19.355 4.80891 19.355 5.31154V10.7288C19.3723 10.7267 19.3898 10.7256 19.4075 10.7256H21.068V10.7223H24.013C24.3576 10.7223 24.637 10.318 24.637 9.81922C24.637 9.32046 24.3576 8.91613 24.013 8.91613H21.068V5.31154C21.068 4.80891 20.6845 4.40145 20.2115 4.40145ZM19.355 17.7904V12.5286C19.3723 12.5307 19.3898 12.5318 19.4075 12.5318H21.068V17.7904C21.068 18.293 20.6845 18.7005 20.2115 18.7005C19.7385 18.7005 19.355 18.293 19.355 17.7904Z" fill="white"/>
<mask id="mask0_543_586" style="mask-type:alpha" maskUnits="userSpaceOnUse" x="19" y="4" width="79" height="15">
<path fill-rule="evenodd" clip-rule="evenodd" d="M46.9559 6.20822C47.4285 6.20822 47.8117 6.09035 47.8117 5.94495V4.66367C47.8117 4.51826 47.4285 4.40039 46.9559 4.40039C46.4833 4.40039 46.1002 4.51826 46.1002 4.66367V5.94495C46.1002 6.09035 46.4833 6.20822 46.9559 6.20822ZM62.9132 5.31147C62.9132 4.80884 63.2967 4.40138 63.7697 4.40138C64.2427 4.40138 64.6262 4.80884 64.6262 5.31147V9.55815C65.0513 9.05823 65.6706 8.59612 66.4904 8.31419C66.53 8.30056 67.4966 8.01315 68.4898 8.31419C70.4425 8.91625 70.8774 11.174 70.8774 11.174V17.7305C70.8774 18.2856 70.5919 18.6999 70.0208 18.6999C69.4497 18.6999 69.0389 18.2856 69.0389 17.7305V12.2276C69.0389 12.1308 69.0389 9.93503 67.0617 9.93503C66.4674 9.93503 65.2806 10.3947 64.6262 12.1556V17.7903C64.6262 18.293 64.2427 18.7004 63.7697 18.7004C63.2967 18.7004 62.9132 18.293 62.9132 17.7903V5.31147ZM86.4641 6.50718C86.9367 6.50718 87.3198 6.38931 87.3198 6.24391V4.96263C87.3198 4.81722 86.9367 4.69935 86.4641 4.69935C85.9914 4.69935 85.6083 4.81722 85.6083 4.96263V6.24391C85.6083 6.38931 85.9914 6.50718 86.4641 6.50718ZM85.6075 8.13802C85.6075 7.73592 85.991 7.40995 86.464 7.40995C86.9371 7.40995 87.3205 7.73592 87.3205 8.13802V18.1211C87.3205 18.5232 86.9371 18.8492 86.464 18.8492C85.991 18.8492 85.6075 18.5232 85.6075 18.1211V8.13802ZM90.5709 8.28978C90.0442 8.28978 89.6172 8.59065 89.6172 8.96178V18.1761C89.6172 18.5472 90.0442 18.8481 90.5709 18.8481C91.0976 18.8481 91.5246 18.5472 91.5246 18.1761V11.9406C92.1559 10.4232 93.1159 10.0835 93.7659 10.0835C95.7431 10.0835 95.7431 12.2794 95.7431 12.3761V17.879L95.7431 17.9173C95.7425 18.4598 95.742 18.9991 96.7184 18.9991C97.7179 18.9991 97.7179 18.4341 97.7179 17.879V11.0131C97.7179 11.0131 97.1467 9.06476 95.1941 8.46269C94.2009 8.16166 93.2343 8.44907 93.1947 8.46269C92.4214 8.7286 91.8834 9.24455 91.5246 9.81106V8.96178C91.5246 8.59065 91.0976 8.28978 90.5709 8.28978ZM77.975 18.6986C74.9397 18.6986 72.4791 16.1042 72.4791 12.9038C72.4791 9.70336 74.9397 7.1089 77.975 7.1089C81.0104 7.1089 83.471 9.70336 83.471 12.9038C83.471 12.9848 83.4694 13.0654 83.4663 13.1456V18.3195C83.4663 18.5285 83.0828 18.6979 82.6098 18.6979C82.1367 18.6979 81.7533 18.5285 81.7533 18.3195V17.1122C80.7684 18.0955 79.4385 18.6986 77.975 18.6986ZM77.9752 16.8926C80.0644 16.8926 81.7581 15.1068 81.7581 12.9039C81.7581 10.701 80.0644 8.9152 77.9752 8.9152C75.8859 8.9152 74.1922 10.701 74.1922 12.9039C74.1922 15.1068 75.8859 16.8926 77.9752 16.8926ZM50.3321 12.7553C50.3321 15.9557 52.7927 18.5501 55.8281 18.5501C58.1312 18.5501 60.1034 17.0564 60.9209 14.9377L60.9205 14.9377L60.9231 14.9321C60.9341 14.9033 60.945 14.8745 60.9556 14.8456C61.0341 14.5767 60.9059 14.3202 60.7776 14.1851C60.6348 14.0346 60.492 14.0346 60.2064 14.0346C59.9208 14.0346 59.6351 14.0346 59.4923 14.1851C59.4584 14.2208 59.4084 14.2905 59.35 14.3719L59.3499 14.3719C59.2994 14.4424 59.2424 14.5217 59.1841 14.5955C58.5534 15.8722 57.2867 16.744 55.827 16.744C53.7377 16.744 52.044 14.9582 52.044 12.7554C52.044 10.5525 53.7377 8.76667 55.827 8.76667C57.2882 8.76667 58.5559 9.64021 59.186 10.919L59.2016 10.9462L59.2016 10.9463L59.2017 10.9464L59.2017 10.9464C59.2563 11.0418 59.3063 11.1292 59.3495 11.1748C59.3832 11.2103 59.4169 11.2542 59.4525 11.3006C59.5677 11.4506 59.7026 11.6263 59.9208 11.6263H60.6348C60.7776 11.6263 61.0633 11.4758 61.0633 11.1748C61.0633 11.0995 61.0461 10.9844 61.0223 10.857C60.2769 8.58886 58.2328 6.9604 55.8281 6.9604C52.7927 6.9604 50.3321 9.55485 50.3321 12.7553ZM46.0992 7.83896C46.0992 7.43686 46.4827 7.11089 46.9557 7.11089C47.4288 7.11089 47.8122 7.43686 47.8122 7.83896V17.8221C47.8122 18.2242 47.4288 18.5501 46.9557 18.5501C46.4827 18.5501 46.0992 18.2242 46.0992 17.8221V7.83896ZM40.2157 17.801C40.2157 18.2979 39.828 18.7006 39.3497 18.7006C38.8715 18.7006 38.4837 18.2979 38.4837 17.801V12.0246C38.5906 8.91892 40.3585 7.26142 43.4706 7.26142C43.9488 7.26142 44.3366 7.6642 44.3366 8.16106C44.3366 8.65791 43.9488 9.0607 43.4706 9.0607C41.2719 9.0607 40.292 9.97428 40.2157 12.0413V17.801ZM25.7789 12.9058C25.7789 16.1062 28.2395 18.7006 31.2748 18.7006C34.3102 18.7006 36.7708 16.1062 36.7708 12.9058C36.7708 9.70534 34.3102 7.11089 31.2748 7.11089C28.2395 7.11089 25.7789 9.70534 25.7789 12.9058ZM31.2747 16.8945C33.364 16.8945 35.0576 15.1087 35.0576 12.9059C35.0576 10.703 33.364 8.91719 31.2747 8.91719C29.1855 8.91719 27.4918 10.703 27.4918 12.9059C27.4918 15.1087 29.1855 16.8945 31.2747 16.8945ZM20.2115 4.40145C19.7385 4.40145 19.355 4.80891 19.355 5.31154V10.7288C19.3723 10.7267 19.3898 10.7256 19.4075 10.7256H21.068V10.7223H24.013C24.3576 10.7223 24.637 10.318 24.637 9.81922C24.637 9.32046 24.3576 8.91613 24.013 8.91613H21.068V5.31154C21.068 4.80891 20.6845 4.40145 20.2115 4.40145ZM19.355 17.7904V12.5286C19.3723 12.5307 19.3898 12.5318 19.4075 12.5318H21.068V17.7904C21.068 18.293 20.6845 18.7005 20.2115 18.7005C19.7385 18.7005 19.355 18.293 19.355 17.7904Z" fill="white"/>
</mask>
<g mask="url(#mask0_543_586)">
<rect x="-3.50317" y="-4.13965" width="107.969" height="30.8531" fill="#FAFAFA"/>
<rect x="45.083" y="2.87305" width="4.04885" height="3.50604" fill="url(#paint0_radial_543_586)"/>
<rect x="84.8965" y="4.27539" width="2.69923" height="2.80483" fill="url(#paint1_radial_543_586)"/>
</g>
<mask id="mask1_543_586" style="mask-type:alpha" maskUnits="userSpaceOnUse" x="0" y="0" width="17" height="20">
<rect width="16.1014" height="20" rx="8.05069" fill="white"/>
</mask>
<g mask="url(#mask1_543_586)">
<path d="M2.09611 15.8204C1.82775 15.2774 2.06552 14.6269 2.62718 14.3675C3.18884 14.1081 3.8617 14.3379 4.13006 14.8809C4.84093 16.3192 6.44649 17.2788 8.26134 17.2788C10.7676 17.2788 12.7697 15.4698 12.7697 13.2764C12.7697 11.083 10.7676 9.27399 8.26134 9.27399C7.63887 9.27399 7.13425 8.78616 7.13425 8.1844C7.13425 7.58264 7.63887 7.09481 8.26134 7.09481C11.9798 7.09481 15.0239 9.84534 15.0239 13.2764C15.0239 16.7075 11.9798 19.458 8.26134 19.458C5.58569 19.458 3.18472 18.023 2.09611 15.8204Z" fill="white"/>
<path d="M14.9258 5.15819C15.1796 5.70765 14.9247 6.352 14.3563 6.59737C13.7879 6.84275 13.1214 6.59624 12.8675 6.04678C12.1475 4.48815 10.545 3.46336 8.74842 3.46336C6.25851 3.46336 4.24003 5.41466 4.24003 7.82171C4.24003 10.2288 6.25851 12.1801 8.74842 12.1801C9.3709 12.1801 9.87552 12.6679 9.87552 13.2697C9.87552 13.8714 9.3709 14.3592 8.74842 14.3592C5.01355 14.3592 1.98584 11.4323 1.98584 7.82171C1.98584 4.21113 5.01355 1.28418 8.74842 1.28418C11.4424 1.28418 13.8464 2.82142 14.9258 5.15819Z" fill="white"/>
</g>
<defs>
<radialGradient id="paint0_radial_543_586" cx="0" cy="0" r="1" gradientUnits="userSpaceOnUse" gradientTransform="translate(45.6296 2.47862) rotate(48.0788) scale(5.24211 5.37773)">
<stop stop-color="#FF8298"/>
<stop offset="1" stop-color="#FFA073"/>
</radialGradient>
<radialGradient id="paint1_radial_543_586" cx="0" cy="0" r="1" gradientUnits="userSpaceOnUse" gradientTransform="translate(85.2609 3.95985) rotate(53.1938) scale(3.89722 3.85788)">
<stop stop-color="#FF8298"/>
<stop offset="1" stop-color="#FFA073"/>
</radialGradient>
</defs>
</svg>
