<svg width="27" height="24" viewBox="0 0 27 24" fill="none" xmlns="http://www.w3.org/2000/svg">
<g filter="url(#filter0_d_667_727)">
<mask id="path-1-inside-1_667_727" fill="white">
<path fill-rule="evenodd" clip-rule="evenodd" d="M4 4.88889L9.33333 0V4.44485H18.2222C19.3276 4.44485 20.6023 4.86212 21.5232 5.99544C22.441 7.12504 22.899 8.83191 22.6622 11.2C22.5528 12.2936 22.2029 13.1814 21.661 13.8823C21.1218 14.5797 20.4298 15.0443 19.7066 15.3531C18.2922 15.957 16.6655 16.0004 15.5555 16.0004V14.2226C16.6678 14.2226 17.9622 14.1648 19.0085 13.7181C19.5156 13.5016 19.9387 13.2035 20.2546 12.7949C20.5678 12.3898 20.8127 11.8282 20.8932 11.0231C21.1009 8.94669 20.67 7.76466 20.1434 7.11649C19.6198 6.47203 18.8945 6.22263 18.2222 6.22263H9.33333V10.2222L4 4.88889ZM13.7778 14.2224H12V16.0002H13.7778V14.2224ZM8.44439 14.2224H10.2222V16.0002H8.44439V14.2224ZM6.66668 14.2224H4.8889V16.0002H6.66668V14.2224Z"/>
</mask>
<path fill-rule="evenodd" clip-rule="evenodd" d="M4 4.88889L9.33333 0V4.44485H18.2222C19.3276 4.44485 20.6023 4.86212 21.5232 5.99544C22.441 7.12504 22.899 8.83191 22.6622 11.2C22.5528 12.2936 22.2029 13.1814 21.661 13.8823C21.1218 14.5797 20.4298 15.0443 19.7066 15.3531C18.2922 15.957 16.6655 16.0004 15.5555 16.0004V14.2226C16.6678 14.2226 17.9622 14.1648 19.0085 13.7181C19.5156 13.5016 19.9387 13.2035 20.2546 12.7949C20.5678 12.3898 20.8127 11.8282 20.8932 11.0231C21.1009 8.94669 20.67 7.76466 20.1434 7.11649C19.6198 6.47203 18.8945 6.22263 18.2222 6.22263H9.33333V10.2222L4 4.88889ZM13.7778 14.2224H12V16.0002H13.7778V14.2224ZM8.44439 14.2224H10.2222V16.0002H8.44439V14.2224ZM6.66668 14.2224H4.8889V16.0002H6.66668V14.2224Z" fill="#9F9F9F"/>
<path d="M9.33333 0H10.3333V-2.27323L8.65761 -0.737154L9.33333 0ZM4 4.88889L3.32428 4.15173L2.55437 4.85748L3.29289 5.596L4 4.88889ZM9.33333 4.44485H8.33333V5.44485H9.33333V4.44485ZM21.5232 5.99544L22.2993 5.36485L22.2993 5.36484L21.5232 5.99544ZM22.6622 11.2L23.6572 11.2995L23.6572 11.2995L22.6622 11.2ZM21.661 13.8823L20.8699 13.2706L20.8699 13.2706L21.661 13.8823ZM19.7066 15.3531L20.0993 16.2728L20.0993 16.2728L19.7066 15.3531ZM15.5555 16.0004H14.5555V17.0004H15.5555V16.0004ZM15.5555 14.2226V13.2226H14.5555V14.2226H15.5555ZM19.0085 13.7181L18.6158 12.7984L18.6158 12.7984L19.0085 13.7181ZM20.2546 12.7949L21.0457 13.4066L21.0457 13.4066L20.2546 12.7949ZM20.8932 11.0231L21.8883 11.1226L21.8883 11.1226L20.8932 11.0231ZM20.1434 7.11649L19.3673 7.74708L19.3673 7.74708L20.1434 7.11649ZM9.33333 6.22263V5.22263H8.33333V6.22263H9.33333ZM9.33333 10.2222L8.62623 10.9293L10.3333 12.6364V10.2222H9.33333ZM12 14.2224V13.2224H11V14.2224H12ZM13.7778 14.2224H14.7778V13.2224H13.7778V14.2224ZM12 16.0002H11V17.0002H12V16.0002ZM13.7778 16.0002V17.0002H14.7778V16.0002H13.7778ZM10.2222 14.2224H11.2222V13.2224H10.2222V14.2224ZM8.44439 14.2224V13.2224H7.44439V14.2224H8.44439ZM10.2222 16.0002V17.0002H11.2222V16.0002H10.2222ZM8.44439 16.0002H7.44439V17.0002H8.44439V16.0002ZM4.8889 14.2224V13.2224H3.8889V14.2224H4.8889ZM6.66668 14.2224H7.66668V13.2224H6.66668V14.2224ZM4.8889 16.0002H3.8889V17.0002H4.8889V16.0002ZM6.66668 16.0002V17.0002H7.66668V16.0002H6.66668ZM8.65761 -0.737154L3.32428 4.15173L4.67572 5.62604L10.0091 0.737154L8.65761 -0.737154ZM10.3333 4.44485V0H8.33333V4.44485H10.3333ZM18.2222 3.44485H9.33333V5.44485H18.2222V3.44485ZM22.2993 5.36484C21.1545 3.95593 19.5702 3.44485 18.2222 3.44485V5.44485C19.0849 5.44485 20.0502 5.76832 20.747 6.62603L22.2993 5.36484ZM23.6572 11.2995C23.9104 8.76797 23.4374 6.76561 22.2993 5.36485L20.747 6.62603C21.4445 7.48447 21.8876 8.89584 21.6672 11.1005L23.6572 11.2995ZM22.4522 14.4939C23.1227 13.6266 23.5317 12.5552 23.6572 11.2995L21.6672 11.1005C21.574 12.0319 21.2831 12.7362 20.8699 13.2706L22.4522 14.4939ZM20.0993 16.2728C20.9438 15.9122 21.7873 15.3539 22.4522 14.4939L20.8699 13.2706C20.4564 13.8055 19.9157 14.1765 19.3139 14.4334L20.0993 16.2728ZM15.5555 17.0004C16.6651 17.0004 18.4783 16.9649 20.0993 16.2728L19.3139 14.4334C18.1062 14.949 16.6658 15.0004 15.5555 15.0004V17.0004ZM14.5555 14.2226V16.0004H16.5555V14.2226H14.5555ZM18.6158 12.7984C17.777 13.1566 16.6702 13.2226 15.5555 13.2226V15.2226C16.6653 15.2226 18.1474 15.1731 19.4012 14.6378L18.6158 12.7984ZM19.4634 12.1833C19.2731 12.4295 19.0012 12.6339 18.6158 12.7984L19.4012 14.6378C20.03 14.3693 20.6043 13.9775 21.0457 13.4066L19.4634 12.1833ZM19.8982 10.9236C19.8339 11.5663 19.6481 11.9444 19.4634 12.1833L21.0457 13.4066C21.4874 12.8352 21.7915 12.0902 21.8883 11.1226L19.8982 10.9236ZM19.3673 7.74708C19.6743 8.12494 20.0894 9.01211 19.8982 10.9236L21.8883 11.1226C22.1124 8.88127 21.6658 7.40439 20.9195 6.4859L19.3673 7.74708ZM18.2222 7.22263C18.6493 7.22263 19.0662 7.37651 19.3673 7.74708L20.9195 6.4859C20.1734 5.56754 19.1398 5.22263 18.2222 5.22263V7.22263ZM9.33333 7.22263H18.2222V5.22263H9.33333V7.22263ZM10.3333 10.2222V6.22263H8.33333V10.2222H10.3333ZM3.29289 5.596L8.62623 10.9293L10.0404 9.51511L4.70711 4.18178L3.29289 5.596ZM12 15.2224H13.7778V13.2224H12V15.2224ZM13 16.0002V14.2224H11V16.0002H13ZM13.7778 15.0002H12V17.0002H13.7778V15.0002ZM12.7778 14.2224V16.0002H14.7778V14.2224H12.7778ZM10.2222 13.2224H8.44439V15.2224H10.2222V13.2224ZM11.2222 16.0002V14.2224H9.22217V16.0002H11.2222ZM8.44439 17.0002H10.2222V15.0002H8.44439V17.0002ZM7.44439 14.2224V16.0002H9.44439V14.2224H7.44439ZM4.8889 15.2224H6.66668V13.2224H4.8889V15.2224ZM5.8889 16.0002V14.2224H3.8889V16.0002H5.8889ZM6.66668 15.0002H4.8889V17.0002H6.66668V15.0002ZM5.66668 14.2224V16.0002H7.66668V14.2224H5.66668Z" fill="black" mask="url(#path-1-inside-1_667_727)"/>
</g>
<defs>
<filter id="filter0_d_667_727" x="0" y="0" width="26.7241" height="24" filterUnits="userSpaceOnUse" color-interpolation-filters="sRGB">
<feFlood flood-opacity="0" result="BackgroundImageFix"/>
<feColorMatrix in="SourceAlpha" type="matrix" values="0 0 0 0 0 0 0 0 0 0 0 0 0 0 0 0 0 0 127 0" result="hardAlpha"/>
<feOffset dy="4"/>
<feGaussianBlur stdDeviation="2"/>
<feComposite in2="hardAlpha" operator="out"/>
<feColorMatrix type="matrix" values="0 0 0 0 0 0 0 0 0 0 0 0 0 0 0 0 0 0 0.25 0"/>
<feBlend mode="normal" in2="BackgroundImageFix" result="effect1_dropShadow_667_727"/>
<feBlend mode="normal" in="SourceGraphic" in2="effect1_dropShadow_667_727" result="shape"/>
</filter>
</defs>
</svg>
